<svg width="20" height="20" viewBox="0 0 20 20" fill="none" xmlns="http://www.w3.org/2000/svg">
  <g clip-path="url(#clip0_712_1371)">
    <path fill-rule="evenodd" clip-rule="evenodd"
      d="M14.0351 5.45655C13.0026 4.4718 11.6246 3.93533 10.199 3.95738C7.59012 3.95738 5.37444 5.71742 4.58442 8.08742C4.16554 9.32938 4.16554 10.6743 4.58442 11.9162H4.58809C5.38177 14.2826 7.59378 16.0426 10.2026 16.0426C11.5493 16.0426 12.7055 15.6982 13.6015 15.0898V15.0873C14.6561 14.3892 15.3763 13.2905 15.6004 12.0485H10.199V8.19772H19.6313C19.7489 8.86647 19.804 9.54992 19.804 10.2297C19.804 13.2712 18.717 15.8427 16.8257 17.5844L16.8277 17.5859C15.1705 19.1145 12.896 20 10.199 20C6.41796 20 2.96031 17.8688 1.26272 14.492C-0.155609 11.6664 -0.155606 8.33733 1.26273 5.51169C2.96032 2.1312 6.41796 2.50159e-06 10.199 2.50159e-06C12.6829 -0.0293931 15.0823 0.903916 16.8901 2.60151L14.0351 5.45655Z" />
  </g>
</svg>