<svg class="inputIcon" width="24" height="24" viewBox="0 0 24 24" fill="none" xmlns="http://www.w3.org/2000/svg">
  <g clip-path="url(#clip0_712_1386)">
    <path
      d="M19.0443 8.50955V7.04435C19.0443 3.15386 15.8904 0 11.9999 0C8.10945 0 4.95564 3.15386 4.95564 7.0443V8.5095C3.10481 9.45402 1.93891 11.3556 1.93665 13.4335V18.4652C1.93999 21.5206 4.41604 23.9967 7.47145 24H16.5284C19.5838 23.9966 22.0599 21.5206 22.0632 18.4652V13.4335C22.061 11.3556 20.8951 9.45402 19.0443 8.50955ZM11.9999 3.01899C14.2231 3.01899 16.0252 4.82119 16.0252 7.0443V7.89868H7.97463V7.0443C7.97463 4.82119 9.77683 3.01899 11.9999 3.01899ZM19.0443 18.4652C19.0443 19.8546 17.9179 20.981 16.5285 20.981H7.4715C6.08205 20.981 4.95569 19.8546 4.95569 18.4652V13.4335C4.95569 12.0441 6.08205 10.9177 7.4715 10.9177H16.5285C17.9179 10.9177 19.0443 12.0441 19.0443 13.4335V18.4652Z"
       />
    <path
      d="M11.4968 13.9367H12.5031C13.3368 13.9367 14.0126 14.6125 14.0126 15.4462C14.0126 16.2798 13.3368 16.9556 12.5031 16.9556H11.4968C10.6631 16.9556 9.9873 16.2798 9.9873 15.4462C9.9873 14.6125 10.6631 13.9367 11.4968 13.9367Z"
       />
  </g>
</svg>