<svg width="20" height="20" viewBox="0 0 20 20" fill="none" xmlns="http://www.w3.org/2000/svg">
  <path
    d="M15.8333 8.75002H8.5058L10.5383 6.71752C10.7728 6.48314 10.9046 6.1652 10.9047 5.83365C10.9047 5.5021 10.7731 5.1841 10.5387 4.94961C10.3043 4.71511 9.98639 4.58333 9.65484 4.58325C9.32329 4.58317 9.00529 4.71481 8.7708 4.94919L5.78246 7.93752C5.23644 8.48505 4.92981 9.22676 4.92981 10C4.92981 10.7733 5.23644 11.515 5.78246 12.0625L8.7708 15.0509C9.00529 15.2852 9.32329 15.4169 9.65484 15.4168C9.98639 15.4167 10.3043 15.2849 10.5387 15.0504C10.7731 14.8159 10.9047 14.4979 10.9047 14.1664C10.9046 13.8348 10.7728 13.5169 10.5383 13.2825L8.5058 11.25H15.8333C16.1648 11.25 16.4828 11.1183 16.7172 10.8839C16.9516 10.6495 17.0833 10.3315 17.0833 10C17.0833 9.6685 16.9516 9.35056 16.7172 9.11614C16.4828 8.88172 16.1648 8.75002 15.8333 8.75002Z"
    fill="#F28705" fill-opacity="0.8" />
</svg>